<?xml version="1.0" encoding="UTF-8" standalone="no"?>
<!-- Created with Inkscape (http://www.inkscape.org/) -->

<svg
   xmlns:dc="http://purl.org/dc/elements/1.1/"
   xmlns:cc="http://creativecommons.org/ns#"
   xmlns:rdf="http://www.w3.org/1999/02/22-rdf-syntax-ns#"
   xmlns:svg="http://www.w3.org/2000/svg"
   xmlns="http://www.w3.org/2000/svg"
   xmlns:sodipodi="http://sodipodi.sourceforge.net/DTD/sodipodi-0.dtd"
   xmlns:inkscape="http://www.inkscape.org/namespaces/inkscape"
   width="744.09448819"
   height="1052.3622047"
   id="svg2"
   version="1.1"
   inkscape:version="0.48.4 r9939"
   sodipodi:docname="devtrac-icons.svg">
  <defs
     id="defs4" />
  <sodipodi:namedview
     id="base"
     pagecolor="#ffffff"
     bordercolor="#666666"
     borderopacity="1.0"
     inkscape:pageopacity="0.0"
     inkscape:pageshadow="2"
     inkscape:zoom="0.56159373"
     inkscape:cx="28.755257"
     inkscape:cy="820.13823"
     inkscape:document-units="px"
     inkscape:current-layer="layer1"
     showgrid="false"
     inkscape:window-width="1366"
     inkscape:window-height="721"
     inkscape:window-x="1359"
     inkscape:window-y="-10"
     inkscape:window-maximized="1" />
  <metadata
     id="metadata7">
    <rdf:RDF>
      <cc:Work
         rdf:about="">
        <dc:format>image/svg+xml</dc:format>
        <dc:type
           rdf:resource="http://purl.org/dc/dcmitype/StillImage" />
        <dc:title></dc:title>
      </cc:Work>
    </rdf:RDF>
  </metadata>
  <g
     inkscape:label="Layer 1"
     inkscape:groupmode="layer"
     id="layer1">
    <g
       id="g3026"
       transform="matrix(0.35555556,0,0,0.35555556,27.817854,78.849124)"
       style="fill:#1a1a1a"
       inkscape:export-filename="/var/www/html/devtractwo/devtrac/dtthree/profiles/devtrac/themes/devtrac_classic/images/summary-icon-user.png"
       inkscape:export-xdpi="90"
       inkscape:export-ydpi="90">
      <g
         id="g2986"
         style="fill:#1a1a1a">
        <path
           id="path2988"
           d="M 73.602,67.24 C 61.276,62.747 57.336,58.958 57.336,50.845 c 0,-4.871 3.764,-3.28 5.416,-12.2 0.686,-3.7 4.01,-0.06 4.646,-8.507 0,-3.367 -1.814,-4.203 -1.814,-4.203 0,0 0.922,-4.982 1.283,-8.816 C 67.314,12.342 64.107,0 47,0 29.893,0 26.684,12.342 27.133,17.119 c 0.361,3.834 1.283,8.816 1.283,8.816 0,0 -1.814,0.836 -1.814,4.203 0.635,8.447 3.959,4.807 4.645,8.507 1.654,8.919 5.416,7.329 5.416,12.2 0,8.113 -3.938,11.902 -16.264,16.395 C 8.033,71.746 0,76.339 0,79.473 0,82.604 0,90 0,90 h 47 47 c 0,0 0,-7.396 0,-10.527 0,-3.134 -8.033,-7.727 -20.398,-12.233 z"
           inkscape:connector-curvature="0"
           style="fill:#1a1a1a" />
      </g>
      <g
         id="g2990"
         style="fill:#1a1a1a" />
      <g
         id="g2992"
         style="fill:#1a1a1a" />
      <g
         id="g2994"
         style="fill:#1a1a1a" />
      <g
         id="g2996"
         style="fill:#1a1a1a" />
      <g
         id="g2998"
         style="fill:#1a1a1a" />
      <g
         id="g3000"
         style="fill:#1a1a1a" />
      <g
         id="g3002"
         style="fill:#1a1a1a" />
      <g
         id="g3004"
         style="fill:#1a1a1a" />
      <g
         id="g3006"
         style="fill:#1a1a1a" />
      <g
         id="g3008"
         style="fill:#1a1a1a" />
      <g
         id="g3010"
         style="fill:#1a1a1a" />
      <g
         id="g3012"
         style="fill:#1a1a1a" />
      <g
         id="g3014"
         style="fill:#1a1a1a" />
      <g
         id="g3016"
         style="fill:#1a1a1a" />
      <g
         id="g3018"
         style="fill:#1a1a1a" />
    </g>
    <path
       id="path3046"
       d="m 144.08316,83.849128 v -4 c 0,-0.55275 0.44725,-1 1,-1 0.55275,0 1,0.44725 1,1 v 4 c 0,0.55275 -0.44725,1 -1,1 -0.55275,0 -1,-0.44725 -1,-1 z m 17,1 c 0.55275,0 1,-0.44725 1,-1 v -4 c 0,-0.55275 -0.44725,-1 -1,-1 -0.55275,0 -1,0.44725 -1,1 v 4 c 0,0.55275 0.44725,1 1,1 z m 11,17.999992 c 0,4.418 -3.58206,8 -8,8 -4.41794,0 -8,-3.58206 -8,-8 0,-4.417932 3.58206,-7.999992 8,-7.999992 4.41794,0 8,3.58206 8,7.999992 z m -2,0 c 0,-3.308612 -2.69144,-5.999992 -6,-5.999992 -3.30856,0 -6,2.69144 -6,5.999992 0,3.30856 2.69144,6 6,6 3.30856,0 6,-2.69137 6,-6 z m -22,-11.999992 h -4 v 4 h 4 v -4 z m -4,9.999992 h 4 v -3.999992 h -4 v 3.999992 z m 6,-5.999992 h 4 v -4 h -4 v 4 z m 0,5.999992 h 4 v -3.999992 h -4 v 3.999992 z m -8,1.80081 V 88.849128 h 22 v 4 h 2 v -7.80075 c 0,-1.21488 -0.96875,-2.19925 -2.166,-2.19925 h -0.834 v 1 c 0,1.10156 -0.8965,2 -2,2 -1.1035,0 -2,-0.89844 -2,-2 v -1 h -12 v 1 c 0,1.10156 -0.8965,2 -2,2 -1.1035,0 -2,-0.89844 -2,-2 v -1 h -0.833 c -1.19725,0 -2.167,0.98437 -2.167,2.19925 v 17.601552 c 0,1.21094 0.96975,2.19919 2.167,2.19919 h 11.833 v -2 h -11.833 c -0.0908,0 -0.167,-0.0937 -0.167,-0.19919 z m 18,-7.800802 v -4 h -4 v 4 h 4 z m 7,7.999992 h -3 v -2.999992 c 0,-0.55275 -0.44725,-1 -1,-1 -0.55275,0 -1,0.44725 -1,1 v 3.999992 c 0,0.55275 0.44725,1 1,1 h 4 c 0.55275,0 1,-0.44725 1,-1 0,-0.55275 -0.44725,-1 -1,-1 z"
       inkscape:connector-curvature="0"
       style="fill:#1a1a1a"
       inkscape:export-filename="/var/www/html/devtractwo/devtrac/dtthree/profiles/devtrac/themes/devtrac_classic/images/summary-icon-date.png"
       inkscape:export-xdpi="90"
       inkscape:export-ydpi="90" />
    <path
       id="path3056"
       d="m 267.79512,81.284398 c 0,0.82677 -0.41318,1.55639 -1.04316,1.99667 v 26.176762 c 0,0.7684 -0.62288,1.39129 -1.39128,1.39129 -0.7684,0 -1.39129,-0.62289 -1.39129,-1.39129 V 83.280648 c -0.62997,-0.44028 -1.04315,-1.16948 -1.04315,-1.99666 0,-1.34501 1.09026,-2.43486 2.43485,-2.43486 1.34376,4.2e-4 2.43403,1.09026 2.43403,2.43527 z m 0.058,1.91286 c 0,3.59433 0,7.18825 0,10.78216 7.01146,2.58912 11.42297,-2.58912 18.43402,0 0,-3.59433 0,-7.18824 0,-10.78216 -7.01105,-2.58911 -11.42256,2.58912 -18.43402,0 z"
       inkscape:connector-curvature="0"
       style="fill:#1a1a1a"
       inkscape:export-filename="/var/www/html/devtractwo/devtrac/dtthree/profiles/devtrac/themes/devtrac_classic/images/summary-icon-adminunit.png"
       inkscape:export-xdpi="90"
       inkscape:export-ydpi="90" />
    <path
       id="path3066"
       d="m 581.8158,87.849128 c -4.11131,1.5137 -7.24413,2.5918 -10,6 -2.45506,3.0371 -6,4.0899 -10,2.0879 v 10.912092 h -2 V 79.849128 c 0,-0.5528 0.44725,-1 1,-1 0.55275,0 1,0.4472 1,1 2.22069,3.2285 6.08006,3.9434 10,4 6,0.088 10,4 10,4 z m -18,13.265592 v 2.0352 c 2.35937,0.4825 4,1.5059 4,2.6993 0,1.6562 -3.13475,3 -7,3 -3.86525,0 -7,-1.3438 -7,-3.0001 0,-1.1934 1.64062,-2.2168 4,-2.6992 v -2.0352 c -3.63281,0.629 -6,2.3907 -6,4.7344 0,2.9434 3.70119,5 9,5 5.29881,0 9,-2.0566 9,-5 0,-2.3437 -2.36719,-4.1054 -6,-4.7344 z"
       inkscape:connector-curvature="0"
       style="fill:#1a1a1a"
       inkscape:export-filename="/var/www/html/devtractwo/devtrac/dtthree/profiles/devtrac/themes/devtrac_classic/images/summary-icon-adminunit.png"
       inkscape:export-xdpi="90"
       inkscape:export-ydpi="90" />
    <g
       id="g3090"
       transform="matrix(1.0892077,0,0,1.0892077,480.44533,67.618823)"
       style="fill:#1a1a1a"
       inkscape:export-filename="/var/www/html/devtractwo/devtrac/dtthree/profiles/devtrac/themes/devtrac_classic/images/summary-icon-progress.png"
       inkscape:export-xdpi="90"
       inkscape:export-ydpi="90">
      <path
         id="path3076"
         d="m 37.729,18.92 c -2.762,-3.187 -9.336,-2.965 -9.783,-0.396 -0.371,2.14 1.875,3.337 2.949,4.447 1.242,1.283 1.453,3.356 0.429,4.77 -0.427,0.587 -2.976,3.166 -2.218,5.713 0.385,1.292 1.252,1.871 2.386,2.106 3.771,0.785 4.169,-2.207 4.208,-3.535 0.035,-1.246 0.221,-2.457 0.734,-3.598 1.259,-2.863 3.168,-7.345 1.295,-9.507 z"
         inkscape:connector-curvature="0"
         style="fill:#1a1a1a" />
      <path
         id="path3078"
         d="m 28.191,10.323 c 0.853,-0.137 1.723,0.87 1.944,2.248 0.221,1.378 -0.289,2.607 -1.141,2.744 -0.853,0.137 -1.722,-0.87 -1.944,-2.248 -0.22,-1.378 0.29,-2.607 1.141,-2.744 z m 4.984,2.606 c 0.052,0.965 -0.388,1.773 -0.984,1.806 -0.597,0.032 -1.122,-0.724 -1.175,-1.689 -0.053,-0.965 0.389,-1.773 0.984,-1.806 0.596,-0.032 1.122,0.724 1.175,1.689 z m 2.504,0.696 c 0.043,0.783 -0.315,1.44 -0.8,1.466 -0.485,0.026 -0.91,-0.587 -0.953,-1.371 -0.043,-0.784 0.314,-1.44 0.799,-1.467 0.485,-0.027 0.912,0.588 0.954,1.372 z m 1.544,1.158 c -0.041,0.579 -0.365,1.028 -0.723,1.002 -0.358,-0.025 -0.615,-0.515 -0.574,-1.094 0.041,-0.579 0.364,-1.028 0.723,-1.002 0.357,0.025 0.615,0.515 0.574,1.094 z m 1.094,1.366 c -0.032,0.462 -0.291,0.82 -0.577,0.8 -0.285,-0.021 -0.491,-0.412 -0.459,-0.874 0.033,-0.462 0.292,-0.82 0.578,-0.8 0.286,0.021 0.491,0.413 0.458,0.874 z"
         inkscape:connector-curvature="0"
         style="fill:#1a1a1a" />
      <path
         id="path3080"
         d="m 22.054,22.524 c -0.447,-2.569 -7.021,-2.79 -9.782,0.396 -1.873,2.162 0.034,6.645 1.295,9.507 0.513,1.142 0.698,2.351 0.734,3.597 0.039,1.328 0.438,4.32 4.208,3.537 1.134,-0.236 2.001,-0.814 2.385,-2.107 0.758,-2.547 -1.79,-5.126 -2.217,-5.713 -1.025,-1.414 -0.814,-3.486 0.428,-4.77 1.074,-1.11 3.32,-2.307 2.949,-4.447 z"
         inkscape:connector-curvature="0"
         style="fill:#1a1a1a" />
      <path
         id="path3082"
         d="m 19.863,16.572 c 0.222,-1.378 1.092,-2.385 1.943,-2.248 0.851,0.137 1.362,1.365 1.141,2.744 -0.222,1.378 -1.092,2.385 -1.943,2.248 -0.852,-0.137 -1.362,-1.365 -1.141,-2.744 z m -0.877,0.473 c -0.052,0.965 -0.579,1.721 -1.175,1.688 -0.597,-0.032 -1.038,-0.841 -0.985,-1.806 0.053,-0.965 0.579,-1.721 1.175,-1.688 0.596,0.033 1.038,0.842 0.985,1.806 z m -2.912,0.676 c -0.043,0.784 -0.469,1.397 -0.953,1.371 -0.483,-0.026 -0.841,-0.683 -0.798,-1.466 0.042,-0.784 0.469,-1.398 0.953,-1.372 0.483,0.027 0.84,0.684 0.798,1.467 z m -2,0.97 c 0.041,0.579 -0.216,1.069 -0.573,1.094 -0.357,0.025 -0.681,-0.424 -0.722,-1.003 -0.041,-0.579 0.216,-1.069 0.573,-1.094 0.358,-0.025 0.681,0.424 0.722,1.003 z m -1.358,1.386 c 0.033,0.462 -0.172,0.854 -0.458,0.874 -0.285,0.02 -0.543,-0.338 -0.576,-0.8 -0.033,-0.462 0.172,-0.854 0.457,-0.874 0.286,-0.021 0.544,0.337 0.577,0.8 z"
         inkscape:connector-curvature="0"
         style="fill:#1a1a1a" />
    </g>
    <g
       id="g3137"
       transform="matrix(0.4,0,0,0.4,90.661621,78.849124)"
       style="fill:#1a1a1a"
       inkscape:export-filename="/var/www/html/devtractwo/devtrac/dtthree/profiles/devtrac/themes/devtrac_classic/images/summary-icon-location.png"
       inkscape:export-xdpi="90"
       inkscape:export-ydpi="90">
      <g
         id="g3097"
         style="fill:#1a1a1a">
        <path
           id="path3099"
           d="M 25,0 C 11.191,0 0,11.194 0,25 0,48.87 25,80 25,80 25,80 50,48.87 50,25 50,11.194 38.807,0 25,0 z m 0,38.8 c -7.457,0 -13.5,-6.044 -13.5,-13.5 0,-7.456 6.043,-13.5 13.5,-13.5 7.455,0 13.5,6.044 13.5,13.5 0,7.456 -6.045,13.5 -13.5,13.5 z"
           inkscape:connector-curvature="0"
           style="fill:#1a1a1a" />
      </g>
      <g
         id="g3101"
         style="fill:#1a1a1a" />
      <g
         id="g3103"
         style="fill:#1a1a1a" />
      <g
         id="g3105"
         style="fill:#1a1a1a" />
      <g
         id="g3107"
         style="fill:#1a1a1a" />
      <g
         id="g3109"
         style="fill:#1a1a1a" />
      <g
         id="g3111"
         style="fill:#1a1a1a" />
      <g
         id="g3113"
         style="fill:#1a1a1a" />
      <g
         id="g3115"
         style="fill:#1a1a1a" />
      <g
         id="g3117"
         style="fill:#1a1a1a" />
      <g
         id="g3119"
         style="fill:#1a1a1a" />
      <g
         id="g3121"
         style="fill:#1a1a1a" />
      <g
         id="g3123"
         style="fill:#1a1a1a" />
      <g
         id="g3125"
         style="fill:#1a1a1a" />
      <g
         id="g3127"
         style="fill:#1a1a1a" />
      <g
         id="g3129"
         style="fill:#1a1a1a" />
    </g>
    <path
       id="path3157"
       d="m 201.5047,110.84912 h 16 V 78.849128 h -16 v 31.999992 z m 10,-27.999992 h 4 v 4 h -4 v -4 z m 0,8 h 4 v 4 h -4 v -4 z m 0,8 h 4 v 3.999992 h -4 v -3.999992 z m -8,-16 h 4 v 4 h -4 v -4 z m 0,8 h 4 v 4 h -4 v -4 z m 0,8 h 4 v 3.999992 h -4 v -3.999992 z m 16,-10 h 14 v 2 h -14 v -2 z m 0,21.999992 h 4 v -8 h 6 v 8 h 4 V 92.849128 h -14 v 17.999992 z"
       inkscape:connector-curvature="0"
       style="fill:#1a1a1a"
       inkscape:export-filename="/var/www/html/devtractwo/devtrac/dtthree/profiles/devtrac/themes/devtrac_classic/images/summary-icon-placetype.png"
       inkscape:export-xdpi="90"
       inkscape:export-ydpi="90" />
    <path
       id="path3167"
       d="m 401.88851,98.289658 -6.02045,11.393502 c -0.29464,0.56698 -1.12945,1.16596 -1.77434,1.16596 l -24.14265,0 c -0.50993,0 -0.999,-0.20243 -1.35936,-0.56278 -0.36037,-0.36075 -0.56281,-0.84942 -0.56281,-1.35939 l 0.004,-18.747232 c 0,-1.06025 0.85951,-1.920467 1.91973,-1.921467 l 1.7653,0 v 1.637627 H 370.537 c -0.23131,0 -0.45323,0.092 -0.61671,0.25534 -0.1635,0.16352 -0.25532,0.38545 -0.25532,0.61679 l 0.002,17.573962 c 0,0.48177 0.39062,0.87202 0.87203,0.87202 h 1.20944 l 5.70567,-11.542112 c 0.32244,-0.64489 0.93153,-1.16557 1.57532,-1.16557 h 13.97316 l 0,-4.64505 c 0.91273,0.084 1.63273,0.84142 1.63273,1.77535 v 2.8697 h 6.4086 c 0.75701,0.01 1.3939,0.75581 0.84042,1.78055 z m -29.05765,5.116712 c -0.0522,-5.744892 0,-22.98082 0,-22.98082 0,-0.869623 0.70714,-1.576422 1.57609,-1.576422 h 12.62107 c 0.20203,0 0.39476,0.08401 0.53148,0.233433 l 4.08017,4.433223 c 0.12282,0.133519 0.19093,0.308144 0.19093,0.489369 v 11.484715 h -1.32349 V 84.996893 c 0,-0.181626 -0.14752,-0.329047 -0.32905,-0.329047 h -3.12323 c -0.36526,0 -0.6627,-0.296741 -0.6627,-0.661593 V 80.50206 c 0,-0.181525 -0.14752,-0.329046 -0.32904,-0.329046 h -11.65544 c -0.13922,0 -0.25254,0.113416 -0.25254,0.252536 v 21.53622 l -1.01294,2.04919 c 0,0 -0.3061,-0.023 -0.31131,-0.60459 z m 14.88656,-20.06171 h 1.96598 l -1.96598,-2.1372 v 2.1372 z m 0.7169,2.671376 H 376.2362 c -0.44936,0 -0.81431,0.365251 -0.81431,0.814614 0,0.449064 0.36525,0.814315 0.81431,0.814315 h 12.19842 c 0.44946,0 0.81501,-0.365551 0.81501,-0.814315 0,-0.449063 -0.36625,-0.814614 -0.81531,-0.814614 z m 0.81501,5.557782 c 0,-0.44906 -0.36565,-0.81392 -0.81501,-0.81392 H 376.2362 c -0.44936,0 -0.81431,0.36556 -0.81431,0.81392 0,0.44906 0.36525,0.81401 0.81431,0.81401 h 12.19842 c 0.44876,0 0.81471,-0.36495 0.81471,-0.81401 z m -13.82774,4.77557 c 0,0.44906 0.36525,0.81362 0.81431,0.81362 h 0.29255 c 0.51477,-1.43451 1.79095,-1.62793 1.79095,-1.62793 h -2.0835 c -0.44836,0 -0.81431,0.36485 -0.81431,0.81431 z"
       inkscape:connector-curvature="0"
       style="fill:#1a1a1a"
       inkscape:export-filename="/var/www/html/devtractwo/devtrac/dtthree/profiles/devtrac/themes/devtrac_classic/images/summary-icon-report.png"
       inkscape:export-xdpi="90"
       inkscape:export-ydpi="90" />
    <path
       id="path3177"
       d="m 463.52066,104.10327 c 0.068,0.51977 -0.091,0.97175 -0.4745,1.35593 l -4.5085,4.47446 c -0.2034,0.22599 -0.4689,0.41819 -0.7966,0.57628 -0.3277,0.15819 -0.6497,0.25988 -0.966,0.30508 -0.023,0 -0.091,0.006 -0.2035,0.0171 -0.1129,0.0113 -0.2598,0.017 -0.4406,0.017 -0.4294,0 -1.1244,-0.0735 -2.0848,-0.22034 -0.9605,-0.14689 -2.1356,-0.50858 -3.5253,-1.08474 -1.39,-0.57628 -2.9663,-1.44079 -4.7289,-2.59323 -1.7627,-1.15243 -3.6384,-2.73446 -5.6271,-4.74576 -1.5819,-1.55932 -2.8927,-3.050842 -3.9322,-4.474562 -1.0396,-1.42373 -1.8757,-2.74012 -2.5085,-3.94916 -0.6328,-1.20904 -1.1074,-2.30508 -1.4238,-3.28813 -0.3164,-0.98305 -0.5311,-1.83051 -0.6441,-2.54238 -0.113,-0.71186 -0.1581,-1.27118 -0.1356,-1.67796 0.023,-0.40678 0.034,-0.63277 0.034,-0.67797 0.045,-0.31638 0.1469,-0.63842 0.3051,-0.9661 0.1582,-0.32768 0.3503,-0.59322 0.5763,-0.79661 l 4.5085,-4.50847 c 0.3164,-0.31639 0.6779,-0.47458 1.0847,-0.47458 0.2938,0 0.5537,0.0847 0.7797,0.25424 0.226,0.16949 0.4181,0.37853 0.5763,0.62712 l 3.6271,6.88135 c 0.2034,0.36158 0.2599,0.75706 0.1695,1.18644 -0.09,0.42938 -0.2825,0.79096 -0.5763,1.08475 l -1.661,1.66102 c -0.045,0.0452 -0.085,0.11864 -0.1187,0.22033 -0.034,0.1017 -0.051,0.18644 -0.051,0.25424 0.09,0.47458 0.2938,1.01695 0.6102,1.62712 0.2711,0.54237 0.6892,1.20339 1.2542,1.98305 0.565,0.77966 1.3672,1.67797 2.4068,2.69486 1.0169,1.0396 1.9209,1.84746 2.7118,2.42379 0.7909,0.576152 1.452,0.999992 1.9831,1.271172 0.5311,0.27119 0.9378,0.43503 1.2203,0.49142 l 0.4236,0.0847 c 0.045,0 0.1188,-0.0169 0.2204,-0.0508 0.1017,-0.0339 0.1752,-0.0734 0.2204,-0.11864 l 1.9322,-1.966092 c 0.4069,-0.36158 0.8813,-0.54237 1.4237,-0.54237 0.3843,0 0.6893,0.0678 0.9153,0.20339 h 0.034 l 6.5422,3.864392 c 0.4748,0.2939 0.7573,0.66678 0.8476,1.11876 z"
       inkscape:connector-curvature="0"
       style="fill:#1a1a1a"
       inkscape:export-filename="/var/www/html/devtractwo/devtrac/dtthree/profiles/devtrac/themes/devtrac_classic/images/summary-icon-phone.png"
       inkscape:export-xdpi="90"
       inkscape:export-ydpi="90" />
    <path
       id="path3187"
       d="m 327.15802,78.849128 c -6.31403,0 -11.44934,5.13782 -11.44934,11.44934 0,5.92863 8.56993,12.343542 11.04766,20.264262 0.0533,0.17108 0.21306,0.28763 0.39228,0.28638 0.17984,-0.002 0.33713,-0.12032 0.38789,-0.29264 2.40379,-8.11561 11.07022,-14.322472 11.07084,-20.258632 -6.3e-4,-6.31089 -5.13656,-11.44871 -11.44933,-11.44871 z m 0,20.13394 c -4.95046,0 -8.9785,-4.02804 -8.9785,-8.97787 0,-4.95046 4.02804,-8.9785 8.9785,-8.9785 4.9492,0 8.97787,4.02804 8.97787,8.9785 0,4.94983 -4.02867,8.97787 -8.97787,8.97787 z"
       inkscape:connector-curvature="0"
       style="fill:#1a1a1a" />
    <path
       id="path3039"
       d="m 638.55105,83.535438 c 3.022,3.021996 4.68625,7.039998 4.68625,11.313748 0,4.27375 -1.66431,8.291684 -4.68625,11.313684 -3.02206,3.02194 -7.04,4.68625 -11.31375,4.68625 -4.27375,0 -8.29169,-1.66431 -11.31375,-4.68625 -3.02194,-3.022 -4.68625,-7.039934 -4.68625,-11.313684 0,-4.27375 1.66419,-8.291752 4.68625,-11.313748 3.02206,-3.022 7.04,-4.68631 11.31375,-4.68631 4.27375,0 8.29169,1.66431 11.31375,4.68631 z m -1.41425,21.213242 c 1.97056,-1.97056 3.28081,-4.42525 3.82106,-7.095674 -0.42106,0.61987 -0.82387,0.84987 -1.07325,-0.53769 -0.25687,-2.26219 -2.33462,-0.81706 -3.64119,-1.62063 -1.37512,0.92682 -4.46581,-1.80193 -3.94056,1.27575 0.81044,1.38819 4.37525,-1.85787 2.59838,1.07944 -1.13357,2.05056 -4.14507,6.591624 -3.75332,8.945554 0.0494,3.4295 -3.50418,0.71513 -4.72856,-0.4225 -0.82362,-2.27875 -0.28069,-6.26175 -2.43431,-7.377674 -2.33756,-0.1015 -4.34388,-0.31394 -5.24981,-2.92719 -0.54519,-1.86963 0.58012,-4.65294 2.58368,-5.08263 2.93282,-1.84269 3.98044,2.15794 6.73094,2.23232 0.854,-0.89357 3.18175,-1.17769 3.37475,-2.17969 -1.80469,-0.31844 2.28963,-1.51744 -0.17275,-2.19944 -1.35844,0.15975 -2.23369,1.40856 -1.51156,2.46744 -2.63244,0.61381 -2.71675,-3.809502 -5.24719,-2.41432 -0.0643,2.20594 -4.13194,0.71519 -1.40737,0.26788 0.93612,-0.409 -1.52688,-1.594252 -0.19625,-1.378882 0.65362,-0.0355 2.85412,-0.80662 2.25862,-1.32506 1.22531,-0.760616 2.255,1.82156 3.45431,-0.0588 0.86588,-1.445806 -0.36312,-1.712746 -1.44843,-0.979876 -0.61188,-0.68512 1.08031,-2.16487 2.57287,-2.80431 0.49744,-0.21312 0.97256,-0.32925 1.33581,-0.29637 0.75182,0.8685 2.14219,1.01893 2.21494,-0.10444 -1.86187,-0.89169 -3.91481,-1.36275 -6.04031,-1.36275 -3.05069,0 -5.95219,0.9695 -8.35338,2.76219 0.64532,0.29562 1.01163,0.66368 0.38994,1.13425 -0.483,1.439176 -2.44281,3.371116 -4.16325,3.097616 -0.89331,1.540502 -1.48162,3.237692 -1.73312,5.016502 1.441,0.47675 1.77325,1.42032 1.46362,1.73594 -0.73425,0.64025 -1.1855,1.54781 -1.418,2.54138 0.46906,2.869864 1.81788,5.514804 3.91469,7.611674 2.64425,2.64419 6.15994,4.10044 9.8995,4.10044 3.7395,0 7.25525,-1.45625 9.8995,-4.10044 z"
       inkscape:connector-curvature="0"
       style="fill:#1a1a1a"
       inkscape:export-filename="/var/www/html/devtractwo/devtrac/dtthree/profiles/devtrac/themes/devtrac_classic/images/summary-icon-adminunit.png"
       inkscape:export-xdpi="90"
       inkscape:export-ydpi="90" />
    <rect
       style="fill:#ff000f;fill-opacity:1;stroke:none"
       id="rect3041"
       width="32"
       height="32"
       x="45.327866"
       y="176.76028"
       inkscape:export-filename="/var/www/html/devtractwo/devtrac/dtthree/profiles/devtrac/themes/devtrac_classic/images/progressbar-icon-required.png"
       inkscape:export-xdpi="90"
       inkscape:export-ydpi="90" />
    <rect
       style="fill:#ffb05f;fill-opacity:1;stroke:none"
       id="rect3043"
       width="32"
       height="32"
       x="112.06055"
       y="176.76028"
       inkscape:export-filename="/var/www/html/devtractwo/devtrac/dtthree/profiles/devtrac/themes/devtrac_classic/images/progressbar-icon-optional.png"
       inkscape:export-xdpi="90"
       inkscape:export-ydpi="90" />
    <g
       id="g3814"
       transform="matrix(2.1333333,0,0,2.1333333,668.39215,76.715791)"
       style="fill:#f9f9f9"
       inkscape:export-filename="/var/www/html/devtractwo/devtrac/dtthree/profiles/devtrac/themes/devtrac_classic/images/gallery-icon-download.png"
       inkscape:export-xdpi="90"
       inkscape:export-ydpi="90">
      <polygon
         id="polygon3816"
         points="13,7 10,7 10,1 6,1 6.018,7 3,7 8,12 "
         style="fill:#f9f9f9" />
      <polygon
         id="polygon3818"
         points="14,12 12,12 12,14 4,14 4,12 2,12 2,14 2,16 14,16 "
         style="fill:#f9f9f9" />
    </g>
    <g
       id="g3830"
       transform="matrix(0.38801989,0,0,0.38801989,31.229337,258.59804)"
       style="fill:#a52a2f;fill-opacity:1"
       inkscape:export-filename="/var/www/html/devtractwo/devtrac/dtthree/profiles/devtrac/themes/devtrac_classic/images/comment-icon-hide-active.png"
       inkscape:export-xdpi="90"
       inkscape:export-ydpi="90">
      <path
         id="path3832"
         d="m 19.467,67.757 7.244,-7.244 c -4.067,-2.457 -7.762,-5.553 -10.909,-9.212 4.769,-5.546 10.793,-9.807 17.475,-12.488 -1.026,2.288 -1.61,4.818 -1.61,7.488 0,2.712 0.604,5.278 1.661,7.594 l 5.85,-5.849 c -0.931,-0.914 -1.511,-2.183 -1.511,-3.591 0,-2.781 2.255,-5.036 5.036,-5.036 1.407,0 2.677,0.58 3.59,1.511 l 5.316,-5.316 5.986,-5.985 3.001,-3.002 C 57.131,25.943 53.587,25.57 50,25.57 32.408,25.57 15.73,34.092 5.386,48.367 l -2.126,2.934 2.126,2.934 c 3.892,5.371 8.683,9.927 14.081,13.522 z"
         style="fill:#a52a2f;fill-opacity:1"
         inkscape:connector-curvature="0" />
      <path
         id="path3834"
         d="m 78.294,33.443 -7.329,7.329 c 4.99,2.626 9.496,6.184 13.233,10.529 -8.524,9.912 -21.05,15.731 -34.198,15.731 -1.683,0 -3.355,-0.098 -5.01,-0.285 l -8.558,8.558 c 4.396,1.125 8.948,1.727 13.568,1.727 17.592,0 34.271,-8.522 44.614,-22.798 L 96.74,51.3 94.614,48.366 c -4.422,-6.1 -10.007,-11.14 -16.32,-14.923 z"
         style="fill:#a52a2f;fill-opacity:1"
         inkscape:connector-curvature="0" />
      <path
         id="path3836"
         d="m 50,64.634 c 10.125,0 18.333,-8.208 18.333,-18.333 0,-0.913 -0.089,-1.803 -0.218,-2.68 L 47.32,64.417 c 0.877,0.129 1.767,0.217 2.68,0.217 z"
         style="fill:#a52a2f;fill-opacity:1"
         inkscape:connector-curvature="0" />
      <path
         id="path3838"
         d="M 43.916,63.579 67.278,40.217 68.094,39.401 75.577,31.918 89.754,17.74 c 2.213,-2.213 2.213,-5.801 0,-8.014 -1.106,-1.106 -2.557,-1.66 -4.007,-1.66 -1.45,0 -2.901,0.553 -4.007,1.66 l -17.701,17.702 -3.721,3.721 -4.779,4.779 -7.866,7.866 -5.63,5.63 -7.194,7.194 -5.411,5.411 -7.362,7.362 -11.472,11.471 c -2.213,2.213 -2.213,5.801 0,8.014 1.106,1.106 2.557,1.66 4.007,1.66 1.45,0 2.901,-0.553 4.007,-1.66 l 14.526,-14.526 8.184,-8.184 2.588,-2.587 z"
         style="fill:#a52a2f;fill-opacity:1"
         inkscape:connector-curvature="0" />
    </g>
    <path
       id="path3852"
       d="m 187.16885,271.38502 -1.41405,1.41506 -8.48636,-8.48536 1.41406,-1.41506 c 1.56249,-1.56249 4.09568,-1.56249 5.65817,0 l 2.82812,2.82912 c 1.56056,1.56156 1.56056,4.09374 6e-5,5.65624 z m -19.80077,16.96972 c -0.39062,0.39062 -0.39062,1.02343 0,1.41406 0.39062,0.39256 1.02344,0.39256 1.41406,0 l 15.5586,-15.55466 -1.416,-1.41506 -15.55666,15.55566 z m -7.07224,-7.0703 c -0.39062,0.39062 -0.39062,1.02343 0,1.41406 0.39063,0.39062 1.02344,0.39062 1.41406,0 l 15.55854,-15.55566 -1.41406,-1.41406 -15.55854,15.55566 z m 18.38472,-12.72848 -15.5566,15.5566 c -0.78124,0.77931 -0.77931,2.04687 0,2.82812 0.78125,0.78125 2.04687,0.78518 2.83006,-0.002 l 15.5566,-15.55366 -2.83006,-2.82912 z m -12.73041,22.62302 c -0.4785,-0.4785 -0.709,-1.08593 -0.79494,-1.71093 -0.20312,0.0312 -0.40819,0.0606 -0.61719,0.0606 -1.06837,0 -2.07224,-0.418 -2.82812,-1.17381 -0.75587,-0.75781 -1.17187,-1.75975 -1.17187,-2.82812 0,-0.19531 0.0293,-0.38475 0.0566,-0.57425 -0.6465,-0.0879 -1.24413,-0.37112 -1.71287,-0.83987 -0.0449,-0.0449 -0.0606,-0.1055 -0.10157,-0.15431 l -2.44143,9.76954 9.74411,-2.43943 c -0.0429,-0.0391 -0.0918,-0.0684 -0.13275,-0.10938 z"
       inkscape:connector-curvature="0"
       style="fill:#a52a2f;fill-opacity:1"
       inkscape:export-filename="/var/www/html/devtractwo/devtrac/dtthree/profiles/devtrac/themes/devtrac_classic/images/comment-icon-edit-active.png"
       inkscape:export-xdpi="90"
       inkscape:export-ydpi="90" />
    <path
       id="path3862"
       d="m 127.02622,276.8125 c -4.16974,-4.16974 -10.0684,-6.50887 -17.39088,-6.81397 v -6.40717 c 0,-1.52551 -1.93232,-2.54252 -3.15273,-1.32211 L 92.346172,276.4057 c -0.81361,0.8136 -0.71191,2.03402 0,2.64422 l 14.136438,14.13645 c 1.22041,1.22041 3.15273,0.2034 3.15273,-1.32212 v -6.50886 h 1.62722 c 5.39015,0 14.95005,0.91531 18.61129,7.42417 0.3051,0.61021 1.01701,0.91531 1.62721,0.91531 1.11872,0 1.83062,-0.91531 1.83062,-1.83062 0,-0.3051 0,-8.74629 -6.30546,-15.05175 z m -15.76366,4.77995 c -2.23743,0 -3.55954,0.2034 -3.66124,0.2034 -0.91531,0.1017 -1.72891,0.91531 -1.72891,1.83062 v 3.76294 l -9.559898,-9.6616 9.559898,-9.6616 v 3.76294 c 0,1.01701 0.91531,1.83062 1.93232,1.83062 13.62793,0 18.71298,7.01737 20.6453,12.30582 -5.28845,-3.66123 -12.61093,-4.37314 -17.18747,-4.37314 z"
       inkscape:connector-curvature="0"
       style="fill:#a52a2f;fill-opacity:1"
       inkscape:export-filename="/var/www/html/devtractwo/devtrac/dtthree/profiles/devtrac/themes/devtrac_classic/images/comment-icon-reply-active.png"
       inkscape:export-xdpi="90"
       inkscape:export-ydpi="90" />
    <path
       id="path3872"
       d="m 232.3463,265.72781 h -18 c -1.65687,0 -3,1.34312 -3,3 v 1 h 24 v -1 c 0,-1.65688 -1.34312,-3 -3,-3 z m -5.24,-2 0.44112,3.15625 h -8.40224 l 0.44106,-3.15625 h 7.52006 m 0.24,-2 h -8 c -0.825,0 -1.59344,0.6685 -1.70756,1.48556 l -0.58481,4.18513 c -0.11419,0.81706 0.46737,1.48556 1.29237,1.48556 h 10 c 0.825,0 1.40656,-0.6685 1.29244,-1.48556 l -0.58475,-4.18513 c -0.11425,-0.81706 -0.88269,-1.48556 -1.70769,-1.48556 l 0,0 z m 5.5,10 h -19 c -1.1,0 -1.9185,0.89631 -1.81894,1.99181 l 1.63788,18.01644 c 0.0996,1.09544 1.08106,1.99175 2.18106,1.99175 h 15 c 1.1,0 2.0815,-0.89631 2.18106,-1.99175 l 1.63775,-18.01644 c 0.0997,-1.0955 -0.71881,-1.99181 -1.81881,-1.99181 z m -13.5,18 h -3 l -1,-14 h 4 v 14 z m 6,0 h -4 v -14 h 4 v 14 z m 5,0 h -3 v -14 h 4 l -1,14 z"
       inkscape:connector-curvature="0"
       style="fill:#a52a2f;fill-opacity:1"
       inkscape:export-filename="/var/www/html/devtractwo/devtrac/dtthree/profiles/devtrac/themes/devtrac_classic/images/comment-icon-delete-active.png"
       inkscape:export-xdpi="90"
       inkscape:export-ydpi="90" />
    <g
       style="fill:#666666"
       transform="matrix(0.38801989,0,0,0.38801989,31.229337,298.59804)"
       id="g3881"
       inkscape:export-filename="/var/www/html/devtractwo/devtrac/dtthree/profiles/devtrac/themes/devtrac_classic/images/comment-icon-hide.png"
       inkscape:export-xdpi="90"
       inkscape:export-ydpi="90">
      <path
         inkscape:connector-curvature="0"
         style="fill:#666666"
         d="m 19.467,67.757 7.244,-7.244 c -4.067,-2.457 -7.762,-5.553 -10.909,-9.212 4.769,-5.546 10.793,-9.807 17.475,-12.488 -1.026,2.288 -1.61,4.818 -1.61,7.488 0,2.712 0.604,5.278 1.661,7.594 l 5.85,-5.849 c -0.931,-0.914 -1.511,-2.183 -1.511,-3.591 0,-2.781 2.255,-5.036 5.036,-5.036 1.407,0 2.677,0.58 3.59,1.511 l 5.316,-5.316 5.986,-5.985 3.001,-3.002 C 57.131,25.943 53.587,25.57 50,25.57 32.408,25.57 15.73,34.092 5.386,48.367 l -2.126,2.934 2.126,2.934 c 3.892,5.371 8.683,9.927 14.081,13.522 z"
         id="path3883" />
      <path
         inkscape:connector-curvature="0"
         style="fill:#666666"
         d="m 78.294,33.443 -7.329,7.329 c 4.99,2.626 9.496,6.184 13.233,10.529 -8.524,9.912 -21.05,15.731 -34.198,15.731 -1.683,0 -3.355,-0.098 -5.01,-0.285 l -8.558,8.558 c 4.396,1.125 8.948,1.727 13.568,1.727 17.592,0 34.271,-8.522 44.614,-22.798 L 96.74,51.3 94.614,48.366 c -4.422,-6.1 -10.007,-11.14 -16.32,-14.923 z"
         id="path3885" />
      <path
         inkscape:connector-curvature="0"
         style="fill:#666666"
         d="m 50,64.634 c 10.125,0 18.333,-8.208 18.333,-18.333 0,-0.913 -0.089,-1.803 -0.218,-2.68 L 47.32,64.417 c 0.877,0.129 1.767,0.217 2.68,0.217 z"
         id="path3887" />
      <path
         inkscape:connector-curvature="0"
         style="fill:#666666"
         d="M 43.916,63.579 67.278,40.217 68.094,39.401 75.577,31.918 89.754,17.74 c 2.213,-2.213 2.213,-5.801 0,-8.014 -1.106,-1.106 -2.557,-1.66 -4.007,-1.66 -1.45,0 -2.901,0.553 -4.007,1.66 l -17.701,17.702 -3.721,3.721 -4.779,4.779 -7.866,7.866 -5.63,5.63 -7.194,7.194 -5.411,5.411 -7.362,7.362 -11.472,11.471 c -2.213,2.213 -2.213,5.801 0,8.014 1.106,1.106 2.557,1.66 4.007,1.66 1.45,0 2.901,-0.553 4.007,-1.66 l 14.526,-14.526 8.184,-8.184 2.588,-2.587 z"
         id="path3889" />
    </g>
    <path
       style="fill:#666666"
       inkscape:connector-curvature="0"
       d="m 187.16885,311.38502 -1.41405,1.41506 -8.48636,-8.48536 1.41406,-1.41506 c 1.56249,-1.56249 4.09568,-1.56249 5.65817,0 l 2.82812,2.82912 c 1.56056,1.56156 1.56056,4.09374 6e-5,5.65624 z m -19.80077,16.96972 c -0.39062,0.39062 -0.39062,1.02343 0,1.41406 0.39062,0.39256 1.02344,0.39256 1.41406,0 l 15.5586,-15.55466 -1.416,-1.41506 -15.55666,15.55566 z m -7.07224,-7.0703 c -0.39062,0.39062 -0.39062,1.02343 0,1.41406 0.39063,0.39062 1.02344,0.39062 1.41406,0 l 15.55854,-15.55566 -1.41406,-1.41406 -15.55854,15.55566 z m 18.38472,-12.72848 -15.5566,15.5566 c -0.78124,0.77931 -0.77931,2.04687 0,2.82812 0.78125,0.78125 2.04687,0.78518 2.83006,-0.002 l 15.5566,-15.55366 -2.83006,-2.82912 z m -12.73041,22.62302 c -0.4785,-0.4785 -0.709,-1.08593 -0.79494,-1.71093 -0.20312,0.0312 -0.40819,0.0606 -0.61719,0.0606 -1.06837,0 -2.07224,-0.418 -2.82812,-1.17381 -0.75587,-0.75781 -1.17187,-1.75975 -1.17187,-2.82812 0,-0.19531 0.0293,-0.38475 0.0566,-0.57425 -0.6465,-0.0879 -1.24413,-0.37112 -1.71287,-0.83987 -0.0449,-0.0449 -0.0606,-0.1055 -0.10157,-0.15431 l -2.44143,9.76954 9.74411,-2.43943 c -0.0429,-0.0391 -0.0918,-0.0684 -0.13275,-0.10938 z"
       id="path3891"
       inkscape:export-filename="/var/www/html/devtractwo/devtrac/dtthree/profiles/devtrac/themes/devtrac_classic/images/comment-icon-edit.png"
       inkscape:export-xdpi="90"
       inkscape:export-ydpi="90" />
    <path
       style="fill:#666666"
       inkscape:connector-curvature="0"
       d="m 127.02622,316.8125 c -4.16974,-4.16974 -10.0684,-6.50887 -17.39088,-6.81397 v -6.40717 c 0,-1.52551 -1.93232,-2.54252 -3.15273,-1.32211 L 92.346172,316.4057 c -0.81361,0.8136 -0.71191,2.03402 0,2.64422 l 14.136438,14.13645 c 1.22041,1.22041 3.15273,0.2034 3.15273,-1.32212 v -6.50886 h 1.62722 c 5.39015,0 14.95005,0.91531 18.61129,7.42417 0.3051,0.61021 1.01701,0.91531 1.62721,0.91531 1.11872,0 1.83062,-0.91531 1.83062,-1.83062 0,-0.3051 0,-8.74629 -6.30546,-15.05175 z m -15.76366,4.77995 c -2.23743,0 -3.55954,0.2034 -3.66124,0.2034 -0.91531,0.1017 -1.72891,0.91531 -1.72891,1.83062 v 3.76294 l -9.559898,-9.6616 9.559898,-9.6616 v 3.76294 c 0,1.01701 0.91531,1.83062 1.93232,1.83062 13.62793,0 18.71298,7.01737 20.6453,12.30582 -5.28845,-3.66123 -12.61093,-4.37314 -17.18747,-4.37314 z"
       id="path3893"
       inkscape:export-filename="/var/www/html/devtractwo/devtrac/dtthree/profiles/devtrac/themes/devtrac_classic/images/comment-icon-reply.png"
       inkscape:export-xdpi="90"
       inkscape:export-ydpi="90" />
    <path
       style="fill:#666666"
       inkscape:connector-curvature="0"
       d="m 232.3463,305.72781 h -18 c -1.65687,0 -3,1.34312 -3,3 v 1 h 24 v -1 c 0,-1.65688 -1.34312,-3 -3,-3 z m -5.24,-2 0.44112,3.15625 h -8.40224 l 0.44106,-3.15625 h 7.52006 m 0.24,-2 h -8 c -0.825,0 -1.59344,0.6685 -1.70756,1.48556 l -0.58481,4.18513 c -0.11419,0.81706 0.46737,1.48556 1.29237,1.48556 h 10 c 0.825,0 1.40656,-0.6685 1.29244,-1.48556 l -0.58475,-4.18513 c -0.11425,-0.81706 -0.88269,-1.48556 -1.70769,-1.48556 l 0,0 z m 5.5,10 h -19 c -1.1,0 -1.9185,0.89631 -1.81894,1.99181 l 1.63788,18.01644 c 0.0996,1.09544 1.08106,1.99175 2.18106,1.99175 h 15 c 1.1,0 2.0815,-0.89631 2.18106,-1.99175 l 1.63775,-18.01644 c 0.0997,-1.0955 -0.71881,-1.99181 -1.81881,-1.99181 z m -13.5,18 h -3 l -1,-14 h 4 v 14 z m 6,0 h -4 v -14 h 4 v 14 z m 5,0 h -3 v -14 h 4 l -1,14 z"
       id="path3895"
       inkscape:export-filename="/var/www/html/devtractwo/devtrac/dtthree/profiles/devtrac/themes/devtrac_classic/images/comment-icon-delete.png"
       inkscape:export-xdpi="90"
       inkscape:export-ydpi="90" />
    <g
       id="g3095"
       transform="matrix(1.4450867,0,0,1.4450867,675.61511,80.568866)">
      <g
         id="g3053">
        <polygon
           id="polygon3055"
           points="0,22.083 11.935,22.083 11.935,20.504 1.777,20.504 1.777,6.209 6.926,6.209 6.926,1.578 15.169,1.578 15.169,6.468 16.946,6.468 16.946,0 5.019,0 0,4.489 "
           style="fill:#231f20;fill-rule:evenodd" />
        <polygon
           id="polygon3057"
           points="18.224,13.729 23.429,13.729 23.429,17.266 18.224,17.266 18.224,22.144 14.438,22.144 14.438,17.266 9.242,17.266 9.242,13.729 14.438,13.729 14.438,8.852 18.224,8.852 "
           style="fill:#231f20;fill-rule:evenodd" />
      </g>
      <g
         id="g3059" />
      <g
         id="g3061" />
      <g
         id="g3063" />
      <g
         id="g3065" />
      <g
         id="g3067" />
      <g
         id="g3069" />
      <g
         id="g3071" />
      <g
         id="g3073" />
      <g
         id="g3075" />
      <g
         id="g3077" />
      <g
         id="g3079" />
      <g
         id="g3081" />
      <g
         id="g3083" />
      <g
         id="g3085" />
      <g
         id="g3087" />
    </g>
    <g
       transform="matrix(1.8063584,0,0,1.8063584,41.704899,396.64656)"
       id="g3116"
       style="fill:#ffffff"
       inkscape:export-filename="/var/www/html/devtractwo/devtrac/dtthree/profiles/devtrac/themes/devtrac_classic/images/user-menu-icon-add.png"
       inkscape:export-xdpi="90"
       inkscape:export-ydpi="90">
      <g
         id="g3118"
         style="fill:#ffffff">
        <polygon
           style="fill:#ffffff;fill-rule:evenodd"
           points="11.935,20.504 1.777,20.504 1.777,6.209 6.926,6.209 6.926,1.578 15.169,1.578 15.169,6.468 16.946,6.468 16.946,0 5.019,0 0,4.489 0,22.083 11.935,22.083 "
           id="polygon3120" />
        <polygon
           style="fill:#ffffff;fill-rule:evenodd"
           points="23.429,17.266 18.224,17.266 18.224,22.144 14.438,22.144 14.438,17.266 9.242,17.266 9.242,13.729 14.438,13.729 14.438,8.852 18.224,8.852 18.224,13.729 23.429,13.729 "
           id="polygon3122" />
      </g>
      <g
         id="g3124"
         style="fill:#ffffff" />
      <g
         id="g3126"
         style="fill:#ffffff" />
      <g
         id="g3128"
         style="fill:#ffffff" />
      <g
         id="g3130"
         style="fill:#ffffff" />
      <g
         id="g3132"
         style="fill:#ffffff" />
      <g
         id="g3134"
         style="fill:#ffffff" />
      <g
         id="g3136"
         style="fill:#ffffff" />
      <g
         id="g3138"
         style="fill:#ffffff" />
      <g
         id="g3140"
         style="fill:#ffffff" />
      <g
         id="g3142"
         style="fill:#ffffff" />
      <g
         id="g3144"
         style="fill:#ffffff" />
      <g
         id="g3146"
         style="fill:#ffffff" />
      <g
         id="g3148"
         style="fill:#ffffff" />
      <g
         id="g3150"
         style="fill:#ffffff" />
      <g
         id="g3152"
         style="fill:#ffffff" />
    </g>
    <path
       inkscape:export-ydpi="90"
       inkscape:export-xdpi="90"
       inkscape:export-filename="/var/www/html/devtractwo/devtrac/dtthree/profiles/devtrac/themes/devtrac_classic/images/user-menu-icon-edit.png"
       id="path3154"
       d="m 130.77305,407.29621 -1.76756,1.76882 -10.60794,-10.60668 1.76757,-1.76883 c 1.95311,-1.95311 5.1196,-1.95311 7.07271,0 l 3.53514,3.5364 c 1.9507,1.95195 1.9507,5.11717 8e-5,7.07029 z m -24.75094,21.21213 c -0.48827,0.48827 -0.48827,1.27928 0,1.76757 0.48828,0.4907 1.2793,0.4907 1.76758,0 l 19.44822,-19.4433 -1.76999,-1.76883 -19.44581,19.44456 z m -8.840286,-8.83787 c -0.488274,0.48828 -0.488274,1.27929 0,1.76757 0.488287,0.48828 1.279299,0.48828 1.767573,0 l 19.448153,-19.44455 -1.76757,-1.76757 -19.448156,19.44455 z m 22.980876,-15.91058 -19.44573,19.44573 c -0.976549,0.97413 -0.974136,2.55858 0,3.53514 0.97656,0.97656 2.55858,0.98148 3.53757,-0.002 l 19.44573,-19.44205 -3.53757,-3.5364 z m -15.913,28.27874 c -0.59812,-0.59812 -0.88625,-1.35741 -0.99367,-2.13866 -0.2539,0.039 -0.51024,0.0758 -0.77149,0.0758 -1.33546,0 -2.590294,-0.5225 -3.535143,-1.46726 -0.944836,-0.94726 -1.464836,-2.19968 -1.464836,-3.53515 0,-0.24413 0.03663,-0.48093 0.07075,-0.71781 -0.808124,-0.10987 -1.55516,-0.4639 -2.141085,-1.04983 -0.05612,-0.0561 -0.07575,-0.13188 -0.126962,-0.19289 l -3.051784,12.21191 12.18012,-3.04928 c -0.0536,-0.0489 -0.11475,-0.0855 -0.16593,-0.13673 z"
       inkscape:connector-curvature="0"
       style="fill:#ffffff" />
  </g>
</svg>
